<svg width="26" height="37" viewBox="0 0 26 37" fill="none" xmlns="http://www.w3.org/2000/svg">
<path fill-rule="evenodd" clip-rule="evenodd" d="M11.7596 6.20333C10.7112 7.08977 8.99185 9.7082 7.90153 10.9492C6.81121 12.1903 5.73487 12.7358 5.21766 13.6495C4.70046 14.5632 4.32304 15.3815 4.79831 16.4316C5.27358 17.4817 7.30046 19.2409 8.06927 19.9501C8.83809 20.6592 8.85207 20.5638 9.41121 20.6865C9.97034 20.8093 10.9069 20.8911 11.4241 20.6865C11.9413 20.4819 12.5004 20.0046 12.5144 19.4591C12.5284 18.9136 11.9553 17.9317 11.508 17.4135C11.0607 16.8952 10.194 16.5816 9.83056 16.3497C9.46712 16.1179 9.42518 16.2679 9.32733 16.0224C9.22948 15.777 8.88002 15.3815 9.24347 14.8769C9.6069 14.3723 10.7392 13.7586 11.508 12.9949C12.2768 12.2312 13.2693 11.2493 13.8564 10.2946C14.4435 9.33998 15.0026 8.05805 15.0306 7.26706C15.0585 6.47608 14.737 5.80783 14.1918 5.63054C13.6467 5.45325 12.808 5.31688 11.7596 6.20333Z" fill="#9DC3E6"/>
<path fill-rule="evenodd" clip-rule="evenodd" d="M12.2524 14.7597C12.6083 15.3205 14.0045 16.0865 14.552 16.4832C15.0995 16.8799 15.5102 16.7978 15.5375 17.1398C15.5649 17.4817 15.647 17.4817 14.7163 18.5349C13.7855 19.5882 11.2258 22.187 9.95286 23.4591C8.67988 24.7312 8.03654 25.0868 7.07838 26.1674C6.12023 27.248 4.61455 29.0946 4.20391 29.9426C3.79327 30.7907 4.03966 31.0232 4.61455 31.2558C5.18945 31.4883 6.90044 31.6251 7.65328 31.3378C8.40612 31.0506 8.543 30.2162 9.13158 29.5323C9.72016 28.8484 9.91179 28.6022 11.1848 27.2343C12.4578 25.8665 15.2364 22.953 16.7695 21.3253C18.3025 19.6976 19.8903 18.4939 20.3831 17.468C20.8759 16.4422 20.1504 15.854 19.7261 15.1701C19.3017 14.4862 18.5078 13.6928 17.8371 13.3646C17.1664 13.0363 16.5915 13.2551 15.7018 13.2004C14.8121 13.1457 12.9505 12.8585 12.4167 13.1183C11.8829 13.3782 11.8965 14.1989 12.2524 14.7597Z" fill="#5B9BD5"/>
<path fill-rule="evenodd" clip-rule="evenodd" d="M13.6134 25.5084C14.0714 26.2961 15.6952 27.9124 16.3614 28.7681C17.0276 29.6238 17.1941 30.2078 17.6105 30.6424C18.0269 31.077 18.2073 31.2536 18.8596 31.3759C19.5119 31.4981 21.0247 31.5796 21.5244 31.3759C22.024 31.1721 22.1212 30.7511 21.8575 30.1535C21.5938 29.5558 20.4002 28.4693 19.9422 27.7902C19.4842 27.111 18.5959 25.5219 17.9436 24.8564C17.2913 24.1909 16.8333 24.0143 16.0283 23.797C15.2233 23.5797 14.0159 23.7563 13.6134 24.0415C13.2109 24.3267 13.1554 24.7206 13.6134 25.5084Z" fill="#70AD47"/>
</svg>
